# xmcd
#
# Track frame offsets:
#	150
#	16565
#	29712
#	43812
#	58412
#	70675
#	85867
#
# Disc length: 1335 seconds
#
# Revision: 1
# Processed by: cddbd v1.4PL0 Copyright (c) Steve Scherf et al.
# Submitted via: audiograbber 1.80.04
#
DISCID=58053507
DTITLE=Spiegel Bros. Band - Tight Wrangler Jeans
DYEAR=1900
DGENRE=
TTITLE0=Faith Ain't Faith
TTITLE1=Tight Wrangler Jeans
TTITLE2=Forever (is as far as I can go)
TTITLE3=Desperate Cries
TTITLE4=I Like Dirt
TTITLE5=He Always Looks Back
TTITLE6=Like A Fast Train Runnin
EXTD=
EXTT0=
EXTT1=
EXTT2=
EXTT3=
EXTT4=
EXTT5=
EXTT6=
PLAYORDER=
